name Visual3d_SIMM_grf.mot
datacolumns 19
datarows 51
range 0.990000 1.490000
endheader
time	ground_force_vx	ground_force_vy	ground_force_vz	ground_force_px	ground_force_py	ground_force_pz	l_ground_force_vx	l_ground_force_vy	l_ground_force_vz	l_ground_force_px	l_ground_force_py	l_ground_force_pz	ground_torque_x	ground_torque_y	ground_torque_z	l_ground_torque_x	l_ground_torque_y	l_ground_torque_z
0.990000	-0.000000	0.000000	0.000000	-0.000000	0.000000	0.000000	-29.862442	442.015259	31.097271	-0.155240	-0.007605	-0.122855	-0.000000	0.000000	0.000000	0.012354	5.470353	-0.004698
1.000000	-0.000000	0.000000	0.000000	-0.000000	0.000000	0.000000	-29.857288	466.071075	34.308792	-0.152680	-0.006970	-0.122727	-0.000000	0.000000	0.000000	0.014151	6.266325	-0.005381
1.010000	-0.000000	0.000000	0.000000	-0.000000	0.000000	0.000000	-28.438820	486.484253	38.144920	-0.150659	-0.006385	-0.122735	-0.000000	0.000000	0.000000	0.016050	7.107077	-0.006103
1.020000	-0.000000	0.000000	0.000000	-0.000000	0.000000	0.000000	-26.184635	502.781586	41.980473	-0.149075	-0.005932	-0.122843	-0.000000	0.000000	0.000000	0.017951	7.949126	-0.006826
1.030000	-0.000000	0.000000	0.000000	-0.000000	0.000000	0.000000	-23.566372	514.734009	45.456570	-0.147761	-0.005636	-0.123075	-0.000000	0.000000	0.000000	0.019783	8.760110	-0.007523
1.040000	-0.000000	0.000000	0.000000	-0.000000	0.000000	0.000000	-20.844675	522.496460	48.450340	-0.146548	-0.005477	-0.123466	-0.000000	0.000000	0.000000	0.021504	9.522375	-0.008177
1.050000	-0.000000	0.000000	0.000000	-0.000000	0.000000	0.000000	-18.155487	526.507507	50.914410	-0.145299	-0.005420	-0.124030	-0.000000	0.000000	0.000000	0.023091	10.224969	-0.008781
1.060000	-0.000000	0.000000	0.000000	-0.000000	0.000000	0.000000	-15.572685	527.379028	52.824921	-0.143936	-0.005423	-0.124757	-0.000000	0.000000	0.000000	0.024525	10.860247	-0.009326
1.070000	-0.000000	0.000000	0.000000	-0.000000	0.000000	0.000000	-13.092575	525.891235	54.236130	-0.142444	-0.005450	-0.125613	-0.000000	0.000000	0.000000	0.025807	11.427847	-0.009814
1.080000	-0.000000	0.000000	0.000000	-0.000000	0.000000	0.000000	-10.642855	522.968140	55.294617	-0.140858	-0.005475	-0.126550	-0.000000	0.000000	0.000000	0.026953	11.935370	-0.010250
1.090000	-0.000000	0.000000	0.000000	-0.000000	0.000000	0.000000	-8.147964	519.520630	56.180336	-0.139232	-0.005482	-0.127514	-0.000000	0.000000	0.000000	0.027989	12.393885	-0.010643
1.100000	-0.000000	0.000000	0.000000	-0.000000	0.000000	0.000000	-5.589396	516.258301	57.041592	-0.137616	-0.005463	-0.128453	-0.000000	0.000000	0.000000	0.028935	12.812707	-0.011003
1.110000	-0.000000	0.000000	0.000000	-0.000000	0.000000	0.000000	-3.021438	513.583557	57.954395	-0.136037	-0.005419	-0.129321	-0.000000	0.000000	0.000000	0.029796	13.194048	-0.011330
1.120000	-0.000000	0.000000	0.000000	-0.000000	0.000000	0.000000	-0.551547	511.587036	58.918766	-0.134503	-0.005354	-0.130081	-0.000000	0.000000	0.000000	0.030561	13.533033	-0.011622
1.130000	-0.000000	0.000000	0.000000	-0.000000	0.000000	0.000000	1.699100	510.128174	59.893375	-0.133005	-0.005278	-0.130712	-0.000000	0.000000	0.000000	0.031211	13.820727	-0.011869
1.140000	-0.000000	0.000000	0.000000	-0.000000	0.000000	0.000000	3.629954	508.942169	60.806145	-0.131528	-0.005199	-0.131216	-0.000000	0.000000	0.000000	0.031720	14.045955	-0.012062
1.150000	-0.000000	0.000000	0.000000	-0.000000	0.000000	0.000000	5.184319	507.750092	61.560734	-0.130043	-0.005121	-0.131626	-0.000000	0.000000	0.000000	0.032060	14.196733	-0.012192
1.160000	-0.000000	0.000000	0.000000	-0.000000	0.000000	0.000000	6.350538	506.345062	62.069736	-0.128504	-0.005043	-0.131985	-0.000000	0.000000	0.000000	0.032213	14.264448	-0.012250
1.170000	-0.000000	0.000000	0.000000	-0.000000	0.000000	0.000000	7.152084	504.634857	62.284855	-0.126857	-0.004960	-0.132307	-0.000000	0.000000	0.000000	0.032169	14.245110	-0.012233
1.180000	-0.000000	0.000000	0.000000	-0.000000	0.000000	0.000000	7.633690	502.637329	62.205563	-0.125067	-0.004873	-0.132570	-0.000000	0.000000	0.000000	0.031930	14.139278	-0.012142
1.190000	-0.000000	0.000000	0.000000	-0.000000	0.000000	0.000000	7.855941	500.458893	61.886307	-0.123128	-0.004786	-0.132744	-0.000000	0.000000	0.000000	0.031508	13.952355	-0.011982
1.200000	-0.000000	0.000000	0.000000	-0.000000	0.000000	0.000000	7.893242	498.266449	61.436882	-0.121070	-0.004699	-0.132827	-0.000000	0.000000	0.000000	0.030927	13.694778	-0.011760
1.210000	-0.000000	0.000000	0.000000	-0.000000	0.000000	0.000000	7.823576	496.229919	60.985710	-0.118937	-0.004608	-0.132853	-0.000000	0.000000	0.000000	0.030213	13.378601	-0.011489
1.220000	-0.000000	0.000000	0.000000	-0.000000	0.000000	0.000000	7.705482	494.460754	60.628674	-0.116763	-0.004512	-0.132858	-0.000000	0.000000	0.000000	0.029388	13.013577	-0.011175
1.230000	-0.000000	0.000000	0.000000	-0.000000	0.000000	0.000000	7.563610	492.995728	60.405312	-0.114560	-0.004408	-0.132868	-0.000000	0.000000	0.000000	0.028466	12.604994	-0.010825
1.240000	-0.000000	0.000000	0.000000	-0.000000	0.000000	0.000000	7.390452	491.816254	60.307796	-0.112325	-0.004299	-0.132891	-0.000000	0.000000	0.000000	0.027450	12.155209	-0.010438
1.250000	-0.000000	0.000000	0.000000	-0.000000	0.000000	0.000000	7.156194	490.876862	60.304188	-0.110045	-0.004186	-0.132916	-0.000000	0.000000	0.000000	0.026344	11.665544	-0.010018
1.260000	-0.000000	0.000000	0.000000	-0.000000	0.000000	0.000000	6.826377	490.126160	60.355221	-0.107712	-0.004071	-0.132922	-0.000000	0.000000	0.000000	0.025154	11.138382	-0.009565
1.270000	-0.000000	0.000000	0.000000	-0.000000	0.000000	0.000000	6.380103	489.534668	60.424313	-0.105328	-0.003960	-0.132886	-0.000000	0.000000	0.000000	0.023886	10.577228	-0.009083
1.280000	-0.000000	0.000000	0.000000	-0.000000	0.000000	0.000000	5.819984	489.103943	60.481289	-0.102909	-0.003852	-0.132788	-0.000000	0.000000	0.000000	0.022553	9.986693	-0.008576
1.290000	-0.000000	0.000000	0.000000	-0.000000	0.000000	0.000000	5.165824	488.866852	60.502285	-0.100477	-0.003744	-0.132615	-0.000000	0.000000	0.000000	0.021167	9.373246	-0.008049
1.300000	-0.000000	0.000000	0.000000	-0.000000	0.000000	0.000000	4.443662	488.879608	60.465012	-0.098058	-0.003634	-0.132356	-0.000000	0.000000	0.000000	0.019747	8.744427	-0.007509
1.310000	-0.000000	0.000000	0.000000	-0.000000	0.000000	0.000000	3.674685	489.198425	60.344959	-0.095684	-0.003515	-0.132011	-0.000000	0.000000	0.000000	0.018310	8.107994	-0.006963
1.320000	-0.000000	0.000000	0.000000	-0.000000	0.000000	0.000000	2.869333	489.839233	60.109520	-0.093371	-0.003384	-0.131585	-0.000000	0.000000	0.000000	0.016873	7.471694	-0.006416
1.330000	-0.000000	0.000000	0.000000	-0.000000	0.000000	0.000000	2.026940	490.751678	59.720394	-0.091116	-0.003240	-0.131087	-0.000000	0.000000	0.000000	0.015452	6.842206	-0.005876
1.340000	-0.000000	0.000000	0.000000	-0.000000	0.000000	0.000000	1.141697	491.820984	59.148338	-0.088900	-0.003085	-0.130524	-0.000000	0.000000	0.000000	0.014059	6.225707	-0.005346
1.350000	-0.000000	0.000000	0.000000	-0.000000	0.000000	0.000000	0.208836	492.901245	58.385910	-0.086703	-0.002925	-0.129903	-0.000000	0.000000	0.000000	0.012711	5.628836	-0.004834
1.360000	-0.000000	0.000000	0.000000	-0.000000	0.000000	0.000000	-0.770226	493.863129	57.457333	-0.084512	-0.002764	-0.129231	-0.000000	0.000000	0.000000	0.011426	5.059420	-0.004345
1.370000	-0.000000	0.000000	0.000000	-0.000000	0.000000	0.000000	-1.773695	494.635742	56.417435	-0.082327	-0.002600	-0.128511	-0.000000	0.000000	0.000000	0.010222	4.526381	-0.003887
1.380000	-0.000000	0.000000	0.000000	-0.000000	0.000000	0.000000	-2.747648	495.189850	55.338188	-0.080148	-0.002429	-0.127749	-0.000000	0.000000	0.000000	0.009117	4.037249	-0.003467
1.390000	-0.000000	0.000000	0.000000	-0.000000	0.000000	0.000000	-3.618748	495.504913	54.293266	-0.077982	-0.002243	-0.126956	-0.000000	0.000000	0.000000	0.008121	3.596020	-0.003088
1.400000	-0.000000	0.000000	0.000000	-0.000000	0.000000	0.000000	-4.319219	495.547943	53.353390	-0.075833	-0.002034	-0.126141	-0.000000	0.000000	0.000000	0.007235	3.203626	-0.002751
1.410000	-0.000000	0.000000	0.000000	-0.000000	0.000000	0.000000	-4.801466	495.246613	52.581661	-0.073697	-0.001793	-0.125319	-0.000000	0.000000	0.000000	0.006456	2.858626	-0.002455
1.420000	-0.000000	0.000000	0.000000	-0.000000	0.000000	0.000000	-5.036815	494.466278	52.025642	-0.071568	-0.001517	-0.124501	-0.000000	0.000000	0.000000	0.005774	2.557005	-0.002196
1.430000	-0.000000	0.000000	0.000000	-0.000000	0.000000	0.000000	-5.011816	492.973358	51.705269	-0.069440	-0.001206	-0.123698	-0.000000	0.000000	0.000000	0.005178	2.293048	-0.001969
1.440000	-0.000000	0.000000	0.000000	-0.000000	0.000000	0.000000	-4.733397	490.423218	51.605652	-0.067310	-0.000867	-0.122927	-0.000000	0.000000	0.000000	0.004652	2.059788	-0.001769
1.450000	-12.969692	41.298203	-2.827976	0.144736	-0.006017	0.232720	-4.233195	486.374329	51.679661	-0.065181	-0.000513	-0.122215	0.003194	-0.169186	0.002307	0.004178	1.849870	-0.001589
1.460000	-14.551085	76.654861	-5.609348	0.132766	-0.006418	0.236037	-3.554184	480.339447	51.852509	-0.063070	-0.000162	-0.121613	0.006267	-0.331916	0.004527	0.003744	1.657834	-0.001424
1.470000	-14.089496	122.649582	-10.010181	0.126355	-0.006761	0.237817	-2.726547	471.841644	52.027752	-0.061017	0.000153	-0.121197	0.009930	-0.525944	0.007173	0.003345	1.481096	-0.001272
1.480000	-11.429969	177.131210	-16.319677	0.124013	-0.007087	0.239337	-1.760400	460.457916	52.094181	-0.059099	0.000385	-0.121071	0.013765	-0.729053	0.009942	0.002979	1.319236	-0.001133
1.490000	-8.013055	236.086639	-24.759895	0.125702	-0.007405	0.241110	-0.664520	445.807251	51.926750	-0.057432	0.000470	-0.121362	0.017715	-0.938232	0.012795	0.002650	1.173436	-0.001008
